<svg width="1200" height="800" viewBox="0 0 1200 800" fill="none" xmlns="http://www.w3.org/2000/svg">
  <rect width="1200" height="800" fill="#0a0a0a"/>

  <defs>
    <linearGradient id="bgGradient" x1="0%" y1="0%" x2="100%" y2="100%">
      <stop offset="0%" stop-color="#4c1d95" stop-opacity="0.35"/>
      <stop offset="50%" stop-color="#7c3aed" stop-opacity="0.25"/>
      <stop offset="100%" stop-color="#0ea5e9" stop-opacity="0.2"/>
    </linearGradient>
    <radialGradient id="glow" cx="50%" cy="50%" r="55%">
      <stop offset="0%" stop-color="#c4b5fd" stop-opacity="0.35"/>
      <stop offset="100%" stop-color="#0a0a0a" stop-opacity="0"/>
    </radialGradient>
    <linearGradient id="cardGlow" x1="0%" y1="0%" x2="100%" y2="0%">
      <stop offset="0%" stop-color="#a78bfa" stop-opacity="0.55"/>
      <stop offset="100%" stop-color="#60a5fa" stop-opacity="0.25"/>
    </linearGradient>
  </defs>

  <circle cx="600" cy="380" r="430" fill="url(#glow)"/>
  <rect x="90" y="90" width="1020" height="620" rx="22" fill="#151518" stroke="#2c2c33" stroke-width="2"/>

  <rect x="90" y="90" width="1020" height="68" rx="22" fill="#222228"/>
  <rect x="90" y="158" width="1020" height="1" fill="#2f2f35"/>

  <circle cx="135" cy="124" r="14" fill="#a78bfa"/>
  <rect x="160" y="115" width="110" height="18" rx="4" fill="#40404a"/>
  <rect x="330" y="115" width="70" height="18" rx="4" fill="#35353d"/>
  <rect x="420" y="115" width="70" height="18" rx="4" fill="#35353d"/>
  <rect x="510" y="115" width="70" height="18" rx="4" fill="#35353d"/>
  <rect x="905" y="110" width="170" height="28" rx="9" fill="#a78bfa"/>

  <g transform="translate(140, 190)">
    <text x="0" y="0" font-family="'Segoe UI', Arial, sans-serif" font-size="28" fill="#f8fafc" font-weight="600">昨夜的梦境正在等待解读</text>
    <text x="0" y="34" font-family="'Segoe UI', Arial, sans-serif" font-size="16" fill="#a1a1aa">记录梦境 · AI 解读 · 灵感洞察 · 社区共鸣</text>

    <rect x="0" y="60" width="420" height="10" rx="5" fill="url(#cardGlow)"/>
    <rect x="0" y="82" width="360" height="8" rx="4" fill="#3a3a44"/>

    <rect x="0" y="120" width="420" height="150" rx="16" fill="#1f1f25" stroke="#2d2d35"/>
    <text x="24" y="150" font-family="'Segoe UI', Arial, sans-serif" font-size="16" fill="#e4e4e7" font-weight="600">梦境记录</text>
    <text x="24" y="176" font-family="'Segoe UI', Arial, sans-serif" font-size="13" fill="#a1a1aa">关键词：海面 · 灯塔 · 星光</text>
    <rect x="24" y="192" width="260" height="8" rx="4" fill="#2f2f38"/>
    <rect x="24" y="208" width="300" height="8" rx="4" fill="#2f2f38"/>
    <rect x="24" y="224" width="220" height="8" rx="4" fill="#2f2f38"/>
    <rect x="24" y="238" width="110" height="26" rx="8" fill="#a78bfa"/>
    <text x="36" y="256" font-family="'Segoe UI', Arial, sans-serif" font-size="12" fill="#111111">生成解析</text>

    <rect x="450" y="120" width="420" height="150" rx="16" fill="#1f1f25" stroke="#2d2d35"/>
    <text x="474" y="150" font-family="'Segoe UI', Arial, sans-serif" font-size="16" fill="#e4e4e7" font-weight="600">AI 洞察报告</text>
    <rect x="474" y="170" width="120" height="8" rx="4" fill="#60a5fa"/>
    <rect x="474" y="186" width="300" height="8" rx="4" fill="#2f2f38"/>
    <rect x="474" y="202" width="270" height="8" rx="4" fill="#2f2f38"/>
    <rect x="474" y="218" width="230" height="8" rx="4" fill="#2f2f38"/>
    <rect x="474" y="234" width="170" height="8" rx="4" fill="#2f2f38"/>

    <rect x="0" y="290" width="270" height="120" rx="16" fill="#1f1f25" stroke="#2d2d35"/>
    <text x="24" y="320" font-family="'Segoe UI', Arial, sans-serif" font-size="14" fill="#e4e4e7" font-weight="600">情绪趋势</text>
    <rect x="24" y="340" width="80" height="8" rx="4" fill="#a78bfa"/>
    <rect x="24" y="358" width="210" height="8" rx="4" fill="#2f2f38"/>

    <rect x="300" y="290" width="270" height="120" rx="16" fill="#1f1f25" stroke="#2d2d35"/>
    <text x="324" y="320" font-family="'Segoe UI', Arial, sans-serif" font-size="14" fill="#e4e4e7" font-weight="600">梦境词典</text>
    <rect x="324" y="340" width="120" height="8" rx="4" fill="#60a5fa"/>
    <rect x="324" y="358" width="200" height="8" rx="4" fill="#2f2f38"/>

    <rect x="600" y="290" width="270" height="120" rx="16" fill="#1f1f25" stroke="#2d2d35"/>
    <text x="624" y="320" font-family="'Segoe UI', Arial, sans-serif" font-size="14" fill="#e4e4e7" font-weight="600">梦境社区</text>
    <rect x="624" y="340" width="170" height="8" rx="4" fill="#a78bfa"/>
    <rect x="624" y="358" width="190" height="8" rx="4" fill="#2f2f38"/>
  </g>

  <circle cx="950" cy="245" r="42" fill="#a78bfa" opacity="0.25"/>
  <circle cx="965" cy="235" r="36" fill="#0a0a0a"/>

  <circle cx="210" cy="240" r="2" fill="#c4b5fd" opacity="0.6"/>
  <circle cx="360" cy="205" r="2" fill="#c084fc" opacity="0.6"/>
  <circle cx="870" cy="360" r="2" fill="#93c5fd" opacity="0.6"/>
  <circle cx="1040" cy="300" r="2" fill="#a78bfa" opacity="0.6"/>
  <circle cx="170" cy="660" r="2" fill="#c4b5fd" opacity="0.6"/>
  <circle cx="1010" cy="620" r="2" fill="#93c5fd" opacity="0.6"/>

  <text x="600" y="740" font-family="'Segoe UI', Arial, sans-serif" font-size="20" fill="#52525b" text-anchor="middle">Dream Log · 记录梦境，发现内在世界</text>
</svg>
